<?xml version="1.0" encoding="UTF-8" standalone="no"?>
<!-- Created with Inkscape (http://www.inkscape.org/) -->

<svg
   xmlns:dc="http://purl.org/dc/elements/1.1/"
   xmlns:cc="http://creativecommons.org/ns#"
   xmlns:rdf="http://www.w3.org/1999/02/22-rdf-syntax-ns#"
   xmlns:svg="http://www.w3.org/2000/svg"
   xmlns="http://www.w3.org/2000/svg"
   xmlns:sodipodi="http://sodipodi.sourceforge.net/DTD/sodipodi-0.dtd"
   xmlns:inkscape="http://www.inkscape.org/namespaces/inkscape"
   width="316"
   height="316"
   viewBox="0 0 517.73889 517.73889"
   id="svg3151"
   version="1.1"
   inkscape:version="0.48.3.1 r9886"
   sodipodi:docname="Seal of Nankai University.svg">
  <defs
     id="defs3153" />
  <sodipodi:namedview
     id="base"
     pagecolor="#ffffff"
     bordercolor="#666666"
     borderopacity="1.0"
     inkscape:pageopacity="0.0"
     inkscape:pageshadow="2"
     inkscape:zoom="0.35"
     inkscape:cx="1239.4235"
     inkscape:cy="-32.929376"
     inkscape:document-units="px"
     inkscape:current-layer="layer1"
     showgrid="false"
     fit-margin-top="0"
     fit-margin-left="0"
     fit-margin-right="0"
     fit-margin-bottom="0"
     inkscape:window-width="1600"
     inkscape:window-height="848"
     inkscape:window-x="-8"
     inkscape:window-y="-8"
     inkscape:window-maximized="1" />
  <metadata
     id="metadata3156">
    <rdf:RDF>
      <cc:Work
         rdf:about="">
        <dc:format>image/svg+xml</dc:format>
        <dc:type
           rdf:resource="http://purl.org/dc/dcmitype/StillImage" />
        <dc:title />
      </cc:Work>
    </rdf:RDF>
  </metadata>
  <g
     inkscape:label="Layer 1"
     inkscape:groupmode="layer"
     id="layer1"
     transform="translate(-116.13054,-273.49272)">
    <path
       id="path2991"
       d="m 375,285.35603 c -136.20071,0 -247.00615,110.80544 -247.00615,247.00615 0,136.20071 110.80544,247.00615 247.00615,247.00615 136.20071,0 247.00615,-110.80544 247.00615,-247.00615 C 622.00615,396.16147 511.20071,285.35603 375,285.35603 z"
       style="fill:none;stroke:#711a5f;stroke-width:10;stroke-miterlimit:4;stroke-opacity:1;stroke-dasharray:none"
       inkscape:connector-curvature="0"
       sodipodi:nodetypes="cssscc" />
    <path
       id="path2993"
       d="m 375.00179,381.63745 -11.31922,11.31562 -32.98644,32.98646 -47.18704,0 -16.00768,0 0,16.00768 0,45.74989 -33.70146,33.70147 -11.31919,11.31921 11.31919,11.3192 33.70146,33.70146 0,45.7499 0,16.00767 16.00768,0 47.90559,0 32.26435,32.26433 11.32276,11.32276 11.31918,-11.32276 32.9829,-32.97933 49.33563,0 16.00766,0 0,-16.00768 0,-45.75345 31.54933,-31.54933 11.32275,-11.31565 -11.31919,-11.31919 -35.1386,-35.13861 0,-44.67561 0,-16.00766 -16.00766,0 -44.67562,0 -34.0572,-34.06076 z"
       style="fill:none;stroke:#711a5f;stroke-width:10;stroke-miterlimit:4;stroke-opacity:1;stroke-dasharray:none"
       inkscape:connector-curvature="0"
       sodipodi:nodetypes="ccccccccccccccccccccccccccccccccc" />
    <g
       id="g3780"
       transform="matrix(0.93573275,0,0,0.93573275,23.740439,34.213332)"
       style="stroke-width:10.68681240000000100;stroke-miterlimit:4;stroke-dasharray:none;stroke:#711a5f;stroke-opacity:1">
      <path
         inkscape:connector-curvature="0"
         style="fill:none;stroke:#711a5f;stroke-width:10.68681240000000100;stroke-miterlimit:4;stroke-opacity:1;stroke-dasharray:none"
         d="m 375.38256,357.86717 c -96.21862,0 -174.49501,78.27638 -174.49501,174.49118 0,96.21863 78.27639,174.49502 174.49501,174.49502 96.21863,0 174.49884,-78.27639 174.49884,-174.49502 0,-96.2148 -78.28021,-174.49118 -174.49884,-174.49118 z"
         id="path2995"
         sodipodi:nodetypes="cssscc" />
    </g>
    <path
       id="path2997"
       d="m 154.03496,594.61679 -0.72687,-11.19382 26.9631,-27.91185 -31.89435,4.83943 -1.54556,-8.94817 47.3308,-7.34522 0.25616,10.03847 -28.29442,29.45359 34.05201,-5.04602 0.45525,8.77219 -46.59627,7.3414 z"
       style="fill:#711a5f;fill-rule:evenodd;stroke:none;fill-opacity:1"
       inkscape:connector-curvature="0" />
    <path
       id="path2999"
       d="m 177.97963,506.63476 -19.70204,4.33063 18.88335,8.1486 0.81869,-12.47923 z m 7.92672,-2.05437 -1.30837,19.05168 10.00405,4.09726 -2.01611,9.7439 -44.62225,-21.31645 1.25099,-12.68199 48.2566,-12.95744 -1.20125,11.61464 -10.36366,2.4484 z"
       style="fill:#711a5f;fill-rule:evenodd;stroke:none;fill-opacity:1"
       inkscape:connector-curvature="0" />
    <path
       id="path3001"
       d="m 156.86976,466.38522 4.32297,-9.77833 38.24108,-10.16472 -29.96623,-11.57256 2.89219,-8.88313 44.56868,17.11208 -3.98631,9.15093 -39.36199,11.30093 29.77876,12.92684 -3.66496,8.88695 -42.82419,-18.97899 z"
       style="fill:#711a5f;fill-rule:evenodd;stroke:none;fill-opacity:1"
       inkscape:connector-curvature="0" />
    <path
       id="path3003"
       d="m 182.0042,409.76195 6.8938,-9.17005 15.80754,11.12495 -7.32992,-23.27901 7.59006,-10.03082 8.22895,26.23623 30.99532,1.6718 -6.68721,10.41721 -27.26533,-0.89902 17.2345,12.4754 -6.17458,9.26188 -39.29313,-27.80857 z"
       style="fill:#711a5f;fill-rule:evenodd;stroke:none;fill-opacity:1"
       inkscape:connector-curvature="0" />
    <path
       id="path3005"
       d="m 257.90869,373.05113 -16.53823,-11.63377 6.7752,18.74563 9.76303,-7.11186 z m 7.5059,4.58311 -14.90468,10.65058 3.10641,10.35217 -7.57859,6.12485 -15.35228,-47.44939 10.45929,-8.40493 42.01699,26.28214 -9.00555,7.72014 -8.74159,-5.27556 z"
       style="fill:#711a5f;fill-rule:evenodd;stroke:none;fill-opacity:1"
       inkscape:connector-curvature="0" />
    <path
       id="path3007"
       d="m 268.24556,330.94998 9.90458,-5.14931 20.70053,41.28629 -8.92904,5.134 -21.67607,-41.27098 z"
       style="fill:#711a5f;fill-rule:evenodd;stroke:none;fill-opacity:1"
       inkscape:connector-curvature="0" />
    <path
       id="path3009"
       d="m 370.12996,303.6617 11.31624,-0.6121 0.73835,29.06337 c 0.0725,2.73151 -0.2678,5.32529 -1.02527,7.789 -0.75365,2.45606 -1.98933,4.63285 -3.69557,6.53036 -1.71006,1.8937 -3.51193,3.24797 -5.43241,4.06666 -2.64351,1.15152 -5.8494,1.80953 -9.60617,1.97403 -2.16914,0.0995 -4.54486,0.0499 -7.11952,-0.15303 -2.57465,-0.19893 -4.73614,-0.72687 -6.4921,-1.58764 -1.74832,-0.85694 -3.36274,-2.11175 -4.84326,-3.76825 -1.46905,-1.66033 -2.49814,-3.38952 -3.07199,-5.19139 -0.93346,-2.89984 -1.42696,-5.48597 -1.492,-7.75075 l -0.73452,-29.0672 11.44631,-0.6121 0.75365,29.71756 c 0.0652,2.5211 0.79191,6.51506 2.18444,7.87316 1.38871,1.35811 5.58926,1.98168 7.99176,1.87457 2.36807,-0.10712 6.65661,-0.88755 7.96498,-2.34129 1.31602,-1.45757 1.93959,-5.52423 1.87073,-8.08358 l -0.75365,-29.72138 z"
       style="fill:#711a5f;fill-rule:evenodd;stroke:none;fill-opacity:1"
       inkscape:connector-curvature="0" />
    <path
       id="path3011"
       d="m 404.01364,305.56687 10.98341,1.58764 17.61706,37.29614 6.81729,-30.09247 9.26187,1.54174 -10.41721,46.3017 -10.15707,-2.7009 -16.72187,-37.03983 -7.07743,30.739 -9.7745,-0.77278 9.46845,-46.86024 z"
       style="fill:#711a5f;fill-rule:evenodd;stroke:none;fill-opacity:1"
       inkscape:connector-curvature="0" />
    <path
       id="path3013"
       d="m 467.59957,323.22984 10.03083,4.3727 -20.57811,43.47456 -9.38812,-4.88917 19.9354,-42.95809 z"
       style="fill:#711a5f;fill-rule:evenodd;stroke:none;fill-opacity:1"
       inkscape:connector-curvature="0" />
    <path
       id="path3015"
       d="m 489.33685,334.5499 10.27949,5.54718 -11.18234,35.99543 29.07103,-22.76638 8.35901,7.84639 -40.6474,26.87893 -7.97263,-5.65812 12.09284,-47.84343 z"
       style="fill:#711a5f;fill-rule:evenodd;stroke:none;fill-opacity:1"
       inkscape:connector-curvature="0" />
    <path
       id="path3017"
       d="m 539.30734,372.1368 16.76777,21.2629 -6.59157,5.44005 -10.80743,-13.61927 -7.41026,6.55715 11.30093,13.91002 -6.297,5.19904 -11.30476,-13.91385 -9.67886,8.62682 11.20146,14.09747 -6.32378,5.09958 -17.8313,-21.06397 36.9748,-31.59594 z"
       style="fill:#711a5f;fill-rule:evenodd;stroke:none;fill-opacity:1"
       inkscape:connector-curvature="0" />
    <path
       id="path3019"
       d="m 555.51274,427.48613 3.05286,4.94273 c 2.63587,4.85091 6.83642,3.27474 7.63597,2.77741 1.1936,-0.73452 5.32147,-2.94192 1.88987,-8.37815 l -3.18293,-5.15696 -9.39577,5.81497 z m -28.86444,4.77057 39.4232,-23.04564 9.63296,16.3546 c 3.66114,5.83027 2.07732,10.82656 1.17065,13.00717 -0.91051,2.18444 -2.02759,3.48516 -4.36888,4.93508 -2.04672,1.26628 -4.08579,1.90516 -6.1325,1.92812 -2.03524,0.0184 -3.99779,-0.47438 -5.89914,-1.47287 -1.20125,-0.63888 -2.72002,-1.97403 -4.90064,-3.17528 l -11.96277,20.96449 -7.0736,-10.29096 10.29096,-14.5336 c 1.6412,-2.01229 2.17297,-5.59691 2.17297,-5.59691 l -16.74865,11.03314 -5.60456,-10.10734 z"
       style="fill:#711a5f;fill-rule:evenodd;stroke:none;fill-opacity:1"
       inkscape:connector-curvature="0" />
    <path
       id="path3021"
       d="m 556.37734,466.89403 c 0,0 -3.5655,8.00706 -2.36807,11.33919 0.67713,1.87839 2.67029,4.1623 4.10491,4.67493 2.7009,0.96407 3.85241,0.30606 5.1034,-0.0805 1.1936,-0.37108 2.06967,-1.18212 2.63586,-2.4331 0.5662,-1.25099 0.55472,-3.17911 0.92198,-5.85323 0.88755,-6.51889 1.49965,-8.72245 2.8654,-11.87478 1.35811,-3.17528 3.83712,-5.31764 7.42557,-6.43472 2.36424,-0.73453 4.83943,-0.79574 7.42939,-0.19527 2.58995,0.60063 4.30767,1.30072 6.49211,3.44691 2.18826,2.14618 4.32297,5.04601 5.42092,9.62913 1.2969,5.42093 -0.48203,10.99871 -3.08729,14.27728 l -6.55714,-5.01541 c 0.77278,-3.56932 1.28924,-7.52886 0.86459,-9.45698 -0.67331,-3.08347 -7.32992,-7.23428 -10.31774,2.50962 -1.82483,5.92974 -1.15917,21.70667 -15.94526,21.16343 -3.15233,-0.11477 -9.26952,-0.30605 -13.86029,-9.49141 -2.89601,-5.78819 -2.50962,-13.02247 2.1194,-20.44804 l 6.75226,4.24264 z"
       style="fill:#711a5f;fill-rule:evenodd;stroke:none;fill-opacity:1"
       inkscape:connector-curvature="0" />
    <path
       id="path3023"
       d="m 601.71497,498.05003 0.77278,10.42104 -48.13418,5.01541 -0.77278,-10.22593 48.13418,-5.21052 z"
       style="fill:#711a5f;fill-rule:evenodd;stroke:none;fill-opacity:1"
       inkscape:connector-curvature="0" />
    <path
       id="path3025"
       d="m 604.90556,520.56009 -0.66566,35.73528 -9.73625,-0.172 0.22556,-12.61313 -39.67187,-0.51646 0.21821,-10.99106 39.67187,0.52029 0.22189,-12.1311 9.73625,0.16833 z"
       style="fill:#711a5f;fill-rule:evenodd;stroke:none;fill-opacity:1"
       inkscape:connector-curvature="0" />
    <path
       id="path3027"
       d="m 602.58339,565.86712 -3.47367,12.24587 -18.56583,4.10108 15.14188,13.40886 -3.61906,10.85334 -21.70284,-21.51156 -19.96601,-3.47368 1.63738,-10.89925 22.09306,3.86007 28.45509,-8.58473 z"
       style="fill:#711a5f;fill-rule:evenodd;stroke:none;fill-opacity:1"
       inkscape:connector-curvature="0" />
    <path
       id="path3029"
       d="m 223.61949,662.59838 c 0,4.35741 -3.53489,7.8923 -7.89994,7.8923 -4.3574,0 -7.88847,-3.53489 -7.88847,-7.8923 0,-4.36122 3.53107,-7.89611 7.88847,-7.89611 4.36505,0 7.89994,3.53489 7.89994,7.89611 z"
       style="fill:#711a5f;fill-rule:evenodd;stroke:none;fill-opacity:1"
       inkscape:connector-curvature="0" />
    <path
       id="path3031"
       d="m 541.55681,662.59838 c 0,4.35741 -3.53489,7.8923 -7.89611,7.8923 -4.35741,0 -7.8923,-3.53489 -7.8923,-7.8923 0,-4.36122 3.53489,-7.89611 7.8923,-7.89611 4.36122,0 7.89611,3.53489 7.89611,7.89611 z"
       style="fill:#711a5f;fill-rule:evenodd;stroke:none;fill-opacity:1"
       inkscape:connector-curvature="0" />
    <path
       id="path3033"
       d="m 282.05994,736.91906 14.95825,-28.81471 -8.42406,-2.56318 2.46372,-6.55332 17.96137,6.4156 -18.60408,35.85388 -8.3552,-4.33827 z"
       style="fill:#711a5f;fill-rule:evenodd;stroke:none;fill-opacity:1"
       inkscape:connector-curvature="0" />
    <path
       id="path3035"
       d="m 358.25518,736.5977 c 0.13375,-0.44377 0.25647,-0.87989 0.35961,-1.28541 0.0995,-0.41699 0.16833,-0.77278 0.21424,-1.07883 0.58149,-3.95571 0.41699,-6.48446 -0.47438,-7.60154 -0.89903,-1.11326 -3.10642,-1.93195 -6.62218,-2.44459 l -11.13261,-1.63737 c -2.82332,-0.41699 -4.805,-0.34813 -5.97565,0.20659 -1.16682,0.55089 -1.88986,1.79039 -2.17296,3.71469 l -0.33283,2.24182 c -0.29075,1.95108 0.11477,3.35509 1.2089,4.21586 1.08648,0.86077 3.4316,1.54938 7.02387,2.08114 2.5364,0.37109 5.31764,0.7001 8.34372,0.97554 3.02226,0.27943 6.20901,0.48203 9.56027,0.6121 z m -1.36575,6.08659 c -2.95339,0.0306 -5.93739,-0.0652 -8.93287,-0.28677 -2.98782,-0.21821 -5.99095,-0.55089 -9.00937,-0.99084 -6.48446,-0.95656 -10.82274,-2.36822 -13.01865,-4.2313 -2.19974,-1.85926 -3.0146,-4.72849 -2.44458,-8.60769 l 0.78808,-5.39415 c 0.50116,-3.34361 1.9702,-5.65047 4.41861,-6.92058 2.45223,-1.27011 6.03303,-1.55703 10.74239,-0.86459 l 16.94758,2.49431 c 5.06897,0.746 8.41258,2.14236 10.02317,4.1929 1.61059,2.04672 2.0735,5.42476 1.3734,10.13794 l -0.77277,5.27938 c -1.09796,7.4753 -4.53721,12.86945 -10.2948,16.1901 -5.77288,3.31683 -13.36678,4.28089 -22.78932,2.89601 -0.78426,-0.11844 -1.37341,-0.20658 -1.76362,-0.28309 -0.39022,-0.0689 -0.7613,-0.15303 -1.10944,-0.25648 l -4.55633,-7.23045 2.54405,0.37491 c 8.55412,1.25864 14.85878,1.38106 18.90247,0.37109 4.04753,-1.00614 7.02388,-3.30153 8.952,-6.87085 z"
       style="fill:#711a5f;fill-rule:evenodd;stroke:none;fill-opacity:1"
       inkscape:connector-curvature="0" />
    <path
       id="path3037"
       d="m 396.69137,757.05722 -3.46603,-31.40084 -8.82957,0.97554 -0.57385,-5.16844 17.30336,-4.43392 4.31532,39.0636 -8.74923,0.96406 z"
       style="fill:#711a5f;fill-rule:evenodd;stroke:none;fill-opacity:1"
       inkscape:connector-curvature="0" />
    <path
       id="path3039"
       d="m 460.56423,719.43589 c -0.0918,-0.45525 -0.18761,-0.8952 -0.29075,-1.30072 -0.1111,-0.41316 -0.21424,-0.7613 -0.31753,-1.05205 -1.35428,-3.75677 -2.68942,-5.91443 -4.00162,-6.4768 -1.31984,-0.56237 -3.64966,-0.24086 -6.99709,0.96406 l -10.58937,3.80268 c -2.68177,0.96406 -4.39948,1.96256 -5.16461,2.99548 -0.7766,1.04057 -0.82634,2.47519 -0.16833,4.30384 l 0.7613,2.13471 c 0.66567,1.85543 1.68329,2.90366 3.05286,3.1485 1.36193,0.24484 3.75295,-0.24882 7.1769,-1.48052 2.41398,-0.8646 5.01924,-1.88604 7.81578,-3.07199 2.79654,-1.1783 5.70403,-2.49814 8.72246,-3.96719 z m 1.66797,6.0139 c -2.59378,1.42314 -5.2679,2.73916 -8.01471,3.95571 -2.74298,1.21656 -5.54717,2.33747 -8.4164,3.37804 -6.17076,2.21122 -10.66206,3.01078 -13.4739,2.41016 -2.81567,-0.61211 -4.89299,-2.75446 -6.21284,-6.44621 l -1.84778,-5.12635 c -1.13622,-3.18293 -0.92963,-5.91061 0.63506,-8.18687 1.56468,-2.27243 4.58694,-4.21585 9.06676,-5.82644 l 16.12124,-5.78819 c 4.81648,-1.73302 8.42788,-2.07733 10.81508,-1.0291 2.38337,1.0444 4.38418,3.81033 5.98712,8.29398 l 1.80953,5.01924 c 2.55552,7.11186 2.06967,13.4892 -1.45374,19.12819 -3.52342,5.65047 -9.76303,10.08056 -18.7265,13.30175 -0.746,0.26412 -1.30837,0.4629 -1.68328,0.58149 -0.38257,0.11844 -0.746,0.22556 -1.10179,0.29075 l -7.42939,-4.2235 2.42163,-0.87225 c 8.13331,-2.91896 13.75317,-5.78054 16.84046,-8.57708 3.09877,-2.80037 4.64815,-6.22431 4.66345,-10.28332 z"
       style="fill:#711a5f;fill-rule:evenodd;stroke:none;fill-opacity:1"
       inkscape:connector-curvature="0" />
    <path
       id="path3041"
       d="m 322.4013,505.43351 c -3.53489,-0.13772 -9.53349,-2.91131 -12.67051,-0.44377 -2.25331,1.77509 -0.71157,3.4775 0.86076,5.19521 2.3872,2.60144 4.4454,4.85091 6.33144,7.85404 1.80952,2.89218 4.03604,6.90528 8.04531,6.4309 5.87236,-0.69244 6.45003,-9.08972 9.70947,-12.78911 0.41317,-0.47055 1.38106,-0.79956 1.92812,-1.13239 0.67332,-0.41699 1.35045,-0.84929 1.98169,-1.34662 0.84546,-0.66949 2.2533,-1.89369 1.62972,-3.12172 -0.69627,-1.36576 -2.9993,-1.51878 -4.30385,-1.56469 -2.05436,-0.0765 -4.0896,0.26779 -6.11719,0.52029 -2.42928,0.2984 -4.94655,0.49733 -7.39496,0.39786 z m 8.09122,-62.78637 c 1.96638,1.70623 3.28623,4.59076 3.32066,7.36818 0.0765,7.14246 -2.57083,14.12808 -0.43995,21.28967 0.49733,1.66416 6.75608,2.12706 8.04149,2.08498 2.58231,-0.0765 6.36586,-0.76513 7.37966,-3.54637 1.08265,-2.98017 -1.71006,-6.54567 -2.54023,-9.26952 -0.9258,-3.02991 -0.86842,-7.75457 1.68328,-10.16855 5.81115,-5.48596 11.93982,5.44006 13.21376,9.83954 1.63355,5.64665 2.32216,13.22141 -0.99084,18.43193 -3.04138,4.78205 -9.72095,5.62369 -14.76696,5.81114 -3.4316,0.1261 -11.89391,-1.20125 -11.80975,4.01692 0.0575,3.91746 5.26408,7.54034 8.77984,7.6398 3.97866,0.11079 8.17156,-1.49582 12.18466,-1.59911 3.53489,-0.0918 8.65359,0.72687 10.68118,4.02074 2.23035,3.62288 3.74147,14.10513 4.34592,21.36237 1.71772,20.75026 -1.92812,49.24361 -1.44991,63.34874 0.37491,11.04462 4.21203,24.51469 -9.41107,19.88949 -3.08347,-3.33595 -0.97554,-7.40261 -0.72305,-11.78679 0.68097,-11.93982 0,-26.88658 0,-41.24803 0,-6.38116 0.97554,-12.76616 0.82251,-19.14732 -0.0995,-4.30767 0.7307,-16.84046 -4.69405,-18.3095 -4.80883,-1.30072 -9.23892,4.5066 -11.33154,7.98793 1.43461,2.47136 6.6107,1.13239 7.2381,4.41861 -0.95641,3.20206 -0.21025,8.13713 -2.16913,10.31392 -3.65731,1.96255 -9.75156,-1.68711 -13.757,0.73835 -1.53791,2.24182 -2.89983,5.06132 -0.72304,7.36053 6.25874,0.6427 14.23137,-0.5815 15.19926,5.16078 1.54938,9.1318 -9.59088,5.00011 -14.47622,9.57558 -3.61523,15.15335 2.14618,41.10265 0,54.51152 -0.41317,2.58613 -1.61442,8.30163 -5.06897,8.83722 -6.45385,1.00614 -8.90991,-11.37362 -9.41107,-17.6821 -1.41931,-17.85808 2.39868,-32.33812 -0.71922,-47.13951 -6.40412,-1.6412 -13.6537,0.38256 -14.48387,-5.15697 -1.23185,-8.16008 10.86482,-4.25028 14.48387,-10.31009 0.47821,-8.73011 -9.75538,-2.47901 -13.76082,-5.89531 -1.67946,-1.43461 0.39021,-10.87246 0.28677,-13.06455 -0.1873,-4.20438 -4.55251,-11.64525 -7.76605,-5.01159 -3.3436,6.89763 -1.61059,16.84429 -0.9411,24.15125 0.39786,4.34976 0.99084,8.71481 1.18212,13.07604 0.57002,12.69729 4.69788,50.72413 -3.61905,52.30412 -8.76454,1.66033 -8.90226,-12.26882 -9.41107,-21.36236 -1.00997,-18.10292 1.12091,-46.66514 0,-62.61422 -0.36727,-5.17992 -3.53489,-14.22373 -2.89984,-17.6821 2.53257,-13.68814 21.76406,-7.24959 30.92264,-11.21677 2.1347,-0.92581 7.65127,-4.71319 5.98712,-7.6092 -1.36193,-2.36807 -8.21747,-1.66033 -10.60084,-1.93195 -6.4003,-0.72687 -13.86794,-1.26246 -16.89402,-7.9688 -1.09031,-11.72176 1.6565,-28.11079 10.13411,-25.78098 8.41641,2.31451 0.77661,11.28946 3.61906,18.41663 1.18212,2.95339 5.83027,6.95501 10.86098,5.15696 10.95663,-3.90981 -0.42082,-23.55446 5.94887,-30.64337 3.02226,-3.36273 6.22814,-2.98017 8.54265,-0.96788 z"
       style="fill:#711a5f;fill-rule:evenodd;stroke:none;fill-opacity:1"
       inkscape:connector-curvature="0" />
    <path
       id="path3043"
       d="m 397.97678,507.10532 c 1.72537,0.42082 4.50661,-0.97937 5.93739,-1.74449 1.7904,-0.96407 3.15616,-2.34895 4.08196,-3.90981 3.06434,-5.12635 0.37491,-14.76314 -8.49292,-10.91454 -4.5372,1.97403 -4.96185,7.39878 -4.60989,11.02166 0.15302,1.59912 0.82634,4.86239 2.95339,5.50892 0.0459,0.0153 0.0881,0.0245 0.13007,0.0383 z m -2.96869,-33.56233 c -2.47902,2.71238 -0.79573,6.94354 4.54486,7.88464 1.95872,0.34431 7.94202,-0.21056 8.88313,-2.3872 1.52643,-3.54254 1.03675,-7.12333 -0.89903,-8.28633 -1.9396,-1.16682 -5.33294,0.0805 -8.50056,0.73452 -1.84014,0.37492 -3.18294,1.12857 -4.0284,2.05437 z m 21.80614,41.65355 c -3.14085,2.98782 -9.4149,-0.0536 -13.34766,1.21655 -12.3109,3.9978 -5.69255,35.00459 -7.28019,48.81132 -0.98318,8.52735 -3.77207,17.23833 -5.82644,24.76718 -1.52261,5.56631 -2.28391,11.77914 -4.55634,17.09678 -3.23266,7.56329 -11.43483,2.01994 -10.94515,-4.57929 0.35579,-4.79735 3.40099,-8.71863 4.57164,-13.24436 8.43936,-32.60974 8.01471,-84.53895 3.64201,-120.20155 -0.35196,-2.88453 -0.82634,-5.91061 -0.30208,-8.80662 0.34431,-1.90517 1.80188,-5.94504 3.96337,-6.32761 2.14235,-0.37873 5.12253,3.00696 6.82876,4.09344 5.84175,3.72999 10.25271,3.19058 12.09667,-4.25794 1.47669,-5.97565 -2.40633,-7.66275 2.18444,-10.19915 10.09586,-5.57395 11.18999,18.97517 11.65672,24.77101 0.85694,10.63527 0.82251,21.24759 -0.0276,31.87904 -0.329,4.10491 0.11477,9.29248 -1.46522,13.16402 -0.3137,0.76896 -0.71539,1.36576 -1.1936,1.81718 z"
       style="fill:#711a5f;fill-rule:evenodd;stroke:none;fill-opacity:1"
       inkscape:connector-curvature="0" />
    <path
       id="path3045"
       d="m 448.39104,505.58271 c 0.42465,-0.45907 0.73453,-0.99849 0.91051,-1.61442 0.94493,-3.30152 0.65418,-6.94736 -1.28159,-9.79746 -1.01762,-1.49582 -5.07662,-2.84245 -6.87467,-2.55552 -1.0291,0.16435 -2.85776,0.26779 -3.51194,0.93728 -0.65418,0.67331 -0.43995,1.43461 -0.77278,2.31451 -1.22038,3.24032 -0.56237,9.73625 2.83862,11.75236 2.57083,1.53026 6.74843,1.11709 8.69185,-1.03675 z m -11.70262,-27.68997 c 0.87224,1.24333 2.14618,2.21505 3.75677,2.71621 3.401,1.05205 9.46846,1.88986 10.98724,-2.5058 0.40934,-1.17447 -1.41166,-4.26176 -2.06202,-5.18756 -1.13622,-1.61442 -2.74298,-2.82332 -4.51043,-3.66879 -2.69707,-1.28924 -7.59772,-2.54788 -8.97877,1.11326 -1.00615,2.65117 -0.64654,5.46684 0.80721,7.53268 z m 7.58241,-17.57498 c 1.06353,0.0422 3.91363,-2.37955 5.01541,-2.87305 1.67946,-0.75748 3.40482,-1.41166 5.28321,-1.41932 7.06595,-0.0245 7.19985,6.87085 6.55714,12.04311 -0.98318,7.88082 -1.79805,15.53975 -1.90516,23.49707 -0.21057,15.8458 0.24851,31.56152 1.10561,47.38818 0.48585,8.86783 1.16682,17.72419 1.66415,26.59584 0.29075,5.222 0.52411,10.44399 0.79191,15.66599 0.24851,4.7897 -0.55472,10.33305 0.78808,14.9659 1.2395,4.28089 5.50892,13.86411 -1.82483,15.66599 -9.55262,2.36424 -10.9069,-14.53743 -11.64907,-23.30579 -0.99467,-11.76767 4.74762,-63.99145 -3.64201,-69.94032 -4.02457,-2.8501 -7.96115,-1.63737 -12.45628,-1.25864 -5.88,0.49734 -9.31925,-1.26246 -9.21978,-7.17689 0.0955,-5.74994 -0.78044,-11.33154 -1.06736,-17.06235 -0.65418,-12.82736 -1.40401,-26.22858 0.77278,-38.945 0.4629,-2.70472 1.39636,-8.8793 5.21435,-9.13945 8.06444,-0.55089 5.50891,14.9506 14.57185,15.29873 z"
       style="fill:#711a5f;fill-rule:evenodd;stroke:none;fill-opacity:1"
       inkscape:connector-curvature="0" />
    <path
       id="path3047"
       d="m 440.10471,523.22656 c 0.24086,0.51263 0.41317,1.08648 0.49733,1.74066 0.26413,1.94343 -0.40169,4.05135 -0.95258,5.89148 -0.64653,2.19209 -2.74681,4.4454 -1.50347,6.73313 1.00231,1.85543 3.74912,1.82483 3.93658,4.31914 0.21056,2.83863 0.24851,5.19905 -1.13239,7.77753 -1.39253,2.5976 -2.984,3.54636 -3.11407,6.62218 -0.13007,2.91896 0.0153,5.86852 -0.0725,8.79514 -0.20658,7.07743 -0.53176,14.17016 -0.0496,21.24759 0.38257,5.72316 6.93589,22.13132 -1.2242,25.21096 -3.92128,1.48052 -7.86551,-2.00464 -9.00555,-5.35972 -1.7751,-5.24112 -0.65419,-11.65672 -0.47821,-17.07 0.37109,-11.79827 2.13853,-23.8605 -0.21821,-35.56313 -0.95259,-4.73997 -4.55251,-9.99639 -2.06967,-14.87408 0.62358,-1.22421 1.88221,-1.98168 1.84778,-3.27475 -0.0245,-0.99849 -1.39636,-2.55935 -1.84013,-3.42777 -1.38871,-2.69325 -2.23035,-5.16461 -0.84547,-8.0874 1.67946,-3.52724 5.29086,-4.4913 8.92904,-4.29237 3.00695,0.16466 6.06364,0.99849 7.29549,3.61141 z"
       style="fill:#711a5f;fill-rule:evenodd;stroke:none;fill-opacity:1"
       inkscape:connector-curvature="0" />
    <path
       id="path3049"
       d="m 416.58469,553.57152 c -1.4767,16.38903 -0.13773,34.72532 -5.09958,49.53436 -1.6718,4.98481 -8.09122,18.56965 -13.11429,17.48317 -8.73393,-1.88221 0.55855,-14.56421 2.18444,-18.94074 4.47217,-11.98955 7.36436,-31.58829 5.10341,-46.61922 -3.70322,-2.61674 -4.1929,-8.25191 -2.984,-12.265 0.59297,-1.96255 3.99396,-3.90215 4.34975,-5.77289 0.42847,-2.28008 -3.08729,-3.84476 -4.2082,-5.58543 -2.13854,-3.33978 -1.69859,-6.74077 1.5532,-9.20831 4.58312,-3.47368 16.34313,-2.53257 14.34997,5.48596 -0.81486,3.2977 -4.33062,5.75759 -3.72234,9.30778 0.53941,3.13703 5.31764,6.12485 5.22965,9.29248 -0.0881,3.32065 -2.89601,5.551 -3.64201,7.28784 z"
       style="fill:#711a5f;fill-rule:evenodd;stroke:none;fill-opacity:1"
       inkscape:connector-curvature="0" />
  </g>
</svg>
